<!--?xml version="1.0" encoding="UTF-8"?-->
<svg width="128" height="128" viewBox="0 0 128 128" fill="none" xmlns="http://www.w3.org/2000/svg">
  <!-- Body shadow -->
  <rect x="24" y="22" width="80" height="88" rx="10" fill="#1F2937"></rect>
  <!-- Cab -->
  <rect x="28" y="26" width="72" height="60" rx="8" fill="#2563EB"></rect>
  <!-- Windshield -->
  <rect x="34" y="32" width="60" height="28" rx="4" fill="#93C5FD"></rect>
  <rect x="34" y="62" width="60" height="8" rx="3" fill="#1E40AF" opacity="0.55"></rect>
  <!-- Grill -->
  <rect x="40" y="74" width="48" height="8" rx="3" fill="#111827"></rect>
  <rect x="44" y="84" width="40" height="6" rx="3" fill="#111827"></rect>
  <!-- Headlights -->
  <rect x="26" y="78" width="10" height="8" rx="2" fill="#F59E0B"></rect>
  <rect x="92" y="78" width="10" height="8" rx="2" fill="#F59E0B"></rect>
  <!-- Mirrors -->
  <rect x="18" y="44" width="8" height="16" rx="3" fill="#4B5563"></rect>
  <rect x="102" y="44" width="8" height="16" rx="3" fill="#4B5563"></rect>
  <!-- Wheels -->
  <circle cx="36" cy="106" r="10" fill="#111827"></circle>
  <circle cx="92" cy="106" r="10" fill="#111827"></circle>
  <circle cx="36" cy="106" r="5" fill="#374151"></circle>
  <circle cx="92" cy="106" r="5" fill="#374151"></circle>
  <!-- Accent bumper -->
  <rect x="28" y="100" width="72" height="10" rx="5" fill="#6B7280"></rect>
</svg>
